<svg version="1.1" xmlns="http://www.w3.org/2000/svg" viewBox="-2041.4395035113318 -1503.3600494384766 6414.943628343484 2284.8000549316407"><desc>Created with Snap</desc><defs></defs><g><rect x="-2041.4395035113318" y="-1503.3600494384766" width="6414.943628343484" height="2284.8000549316407" fill="#000000" style=""></rect><g transform="matrix(5.6624,0,0,5.6624,-1955.0721,-1303.7451)">
<g>
	<g>
		<path fill-rule="evenodd" clip-rule="evenodd" d="M167,19l64,37l64,37v74v73l-64,37l-64,37l-64-37l-64-37v-73V93l64-37L167,19z
			 M167,61l46,26l46,27v53v53l-46,26l-46,27l-46-27l-46-26v-53v-53l46-27L167,61z" fill="#ffffff" style=""></path>
		<path d="M168,72l40,23l0,0l39,23l2,1v2v46v45v2l-2,1l-39,23l0,0l-40,23l-1,1l-2-1l-40-23l0,0l-39-23l-2-1v-2v-45v-46v-2l2-1l39-23
			l0,0l40-23l2-1L168,72z M204,101l-37-22l-38,22l0,0l-38,22v44v43l38,22l0,0l38,22l37-22l0,0l38-22v-43v-44L204,101L204,101z" fill="#ffffff" style=""></path>
	</g>
</g>
<desc>Created with Snap</desc><defs></defs></g><g><g transform="matrix(1.024,0,0,-1.024,0,0)"><path d="M558 636L497 524Q490 531 471 543Q453 555 426 566Q400 578 369 586Q338 594 306 594Q249 594 221 573Q193 552 193 514Q193 492 203 477Q214 463 234 452Q254 441 284 432Q315 423 355 413Q407 399 449 383Q492 367 521 343Q551 319 567 285Q583 252 583 203Q583 146 561 105Q540 65 503 40Q467 15 419 3Q372 -8 320 -8Q240 -8 162 16Q84 40 22 84L83 203Q92 194 115 179Q139 165 171 150Q203 136 242 126Q281 116 322 116Q436 116 436 189Q436 212 423 228Q410 244 386 256Q362 268 328 278Q294 288 252 300Q201 314 163 330Q126 347 101 369Q76 392 63 421Q51 451 51 492Q51 546 71 588Q91 630 126 658Q162 686 209 700Q256 715 310 715Q385 715 448 691Q511 668 558 636ZM644 360Q644 425 667 488Q691 552 736 602Q781 652 846 683Q911 714 994 714Q1092 714 1163 671Q1235 628 1270 559L1164 486Q1150 516 1130 536Q1110 557 1087 569Q1064 581 1039 586Q1014 592 990 592Q938 592 899 571Q861 550 835 516Q810 483 797 440Q784 398 784 356Q784 309 799 265Q814 222 841 189Q869 156 907 136Q946 116 992 116Q1016 116 1042 122Q1068 128 1091 141Q1115 154 1135 174Q1155 195 1167 224L1280 159Q1263 119 1231 88Q1200 58 1160 37Q1121 16 1076 5Q1031 -6 988 -6Q912 -6 849 26Q786 58 740 109Q695 161 669 226Q644 292 644 360ZM1876 0L1511 455L1511 0L1373 0L1373 710L1480 710L1850 244L1850 709L1988 709L1988 0L1876 0ZM2366 -10Q2303 -10 2252 11Q2201 33 2165 70Q2129 107 2109 156Q2090 205 2090 259Q2090 315 2109 364Q2128 414 2164 451Q2200 489 2251 511Q2303 533 2367 533Q2431 533 2481 511Q2532 489 2567 452Q2603 415 2621 366Q2640 317 2640 264Q2640 251 2639 239Q2639 227 2637 219L2232 219Q2235 188 2247 164Q2259 140 2278 123Q2297 106 2321 97Q2345 88 2371 88Q2411 88 2446 107Q2482 127 2495 159L2610 127Q2581 67 2517 28Q2454 -10 2366 -10ZM2230 306L2502 306Q2497 365 2458 400Q2420 436 2365 436Q2338 436 2314 426Q2291 417 2273 400Q2255 383 2243 359Q2232 335 2230 306ZM3216 126L3372 524L3499 524L3280 0L3170 0L3080 230L2991 0L2881 0L2663 524L2789 524L2945 126L3009 296L2917 523L3025 523L3080 362L3136 523L3244 523L3153 296L3216 126ZM3759 -10Q3693 -10 3630 11Q3567 32 3522 71L3572 155Q3620 121 3665 103Q3711 86 3756 86Q3796 86 3819 101Q3842 116 3842 144Q3842 172 3815 185Q3788 198 3727 215Q3676 229 3640 242Q3604 255 3582 271Q3560 288 3550 309Q3540 331 3540 361Q3540 401 3555 433Q3571 465 3599 487Q3627 510 3664 522Q3702 534 3746 534Q3805 534 3856 517Q3908 500 3951 462L3897 381Q3857 411 3819 425Q3782 439 3745 439Q3711 439 3688 425Q3665 411 3665 380Q3665 366 3670 357Q3676 348 3688 341Q3700 334 3719 327Q3739 321 3768 314Q3822 300 3860 286Q3899 272 3923 254Q3948 236 3959 212Q3971 189 3971 156Q3971 79 3914 34Q3857 -10 3759 -10Z" fill="#ffffff" style=""></path></g></g></g></svg>